<?xml version="1.0" encoding="utf-8"?>
<!-- Generator: Adobe Illustrator 18.0.0, SVG Export Plug-In . SVG Version: 6.00 Build 0)  -->
<!DOCTYPE svg PUBLIC "-//W3C//DTD SVG 1.1//EN" "http://www.w3.org/Graphics/SVG/1.1/DTD/svg11.dtd">
<svg version="1.1" id="Layer_1" xmlns="http://www.w3.org/2000/svg" xmlns:xlink="http://www.w3.org/1999/xlink" x="0px" y="0px"
	 viewBox="0 0 234.9 304" enable-background="new 0 0 234.9 304" xml:space="preserve">
<rect id="bg" display="none" fill="#222222" width="234.9" height="304"/>
<path id="tw" fill="#FFFFFF" d="M117.5,255c-56.8,0-103-46.2-103-103s46.2-103,103-103c56.8,0,103,46.2,103,103S174.2,255,117.5,255
	z M117.5,55c-53.5,0-97,43.5-97,97s43.5,97,97,97c53.5,0,97-43.5,97-97S170.9,55,117.5,55z M163.6,123.4c-3.4,1.5-7,2.5-10.9,3
	c3.9-2.3,6.9-6.1,8.3-10.5c-3.7,2.2-7.7,3.7-12,4.6c-3.5-3.7-8.4-6-13.8-6c-10.5,0-18.9,8.5-18.9,18.9c0,1.5,0.2,2.9,0.5,4.3
	c-15.7-0.8-29.7-8.3-39-19.8c-1.6,2.8-2.6,6-2.6,9.5c0,6.6,3.3,12.4,8.4,15.8c-3.1-0.1-6-1-8.6-2.4c0,0.1,0,0.2,0,0.2
	c0,9.2,6.5,16.8,15.2,18.6c-1.6,0.4-3.3,0.7-5,0.7c-1.2,0-2.4-0.1-3.6-0.3c2.4,7.5,9.4,13,17.7,13.1c-6.5,5.1-14.6,8.1-23.5,8.1
	c-1.5,0-3-0.1-4.5-0.3c8.4,5.4,18.3,8.5,29,8.5c34.8,0,53.9-28.9,53.9-53.9c0-0.8,0-1.6-0.1-2.4
	C157.8,130.5,161.1,127.2,163.6,123.4L163.6,123.4z"/>
</svg>
