<?xml version="1.0" encoding="utf-8"?>
<!-- Generator: Adobe Illustrator 17.0.0, SVG Export Plug-In . SVG Version: 6.00 Build 0)  -->
<!DOCTYPE svg PUBLIC "-//W3C//DTD SVG 1.1//EN" "http://www.w3.org/Graphics/SVG/1.1/DTD/svg11.dtd">
<svg version="1.1" id="Layer_1" xmlns="http://www.w3.org/2000/svg" xmlns:xlink="http://www.w3.org/1999/xlink" x="0px" y="0px"
	 width="90px" height="90px" viewBox="20.992 20.992 90 90" enable-background="new 20.992 20.992 90 90" xml:space="preserve">
<g>
	<rect x="20.992" y="20.992" fill="#3A5C77" width="90" height="51.783"/>
	<g>
		<rect x="20.992" y="72.774" fill="#FFFFFF" width="90" height="36.183"/>
	</g>
	<rect x="20.992" y="108.957" fill="#3A5C77" width="90" height="2.034"/>
	<g id="XMLID_1_">
		<g>
			<path fill="#FFFFFF" d="M45.881,29.133L65.997,66.72h-2.005l-4.132-7.501H35.312l-3.41,6.778l-4.773-0.007L45.881,29.133z
				 M58.496,57.092l-10.91-21.78l-10.91,21.78H58.496z"/>
		</g>
	</g>
	<polygon fill="#FFFFFF" points="87.023,33.266 104.184,33.266 104.184,29.133 65.997,29.133 65.997,33.266 85.091,33.266 
		85.091,65.997 87.023,65.997 	"/>
	<g enable-background="new    ">
		<path d="M22.768,101.852c0-0.623,0.144-1.162,0.431-1.616c0.287-0.453,0.662-0.796,1.124-1.028
			c-0.263-0.188-0.468-0.433-0.617-0.735s-0.222-0.612-0.222-0.932c0-0.639,0.192-1.152,0.577-1.538
			c0.385-0.386,0.831-0.578,1.338-0.578c0.593,0,1.07,0.204,1.431,0.614c0.361,0.41,0.541,0.88,0.541,1.412h-0.575
			c0-0.376-0.13-0.705-0.389-0.986c-0.259-0.282-0.595-0.422-1.008-0.422c-0.353,0-0.665,0.137-0.935,0.41
			c-0.27,0.274-0.406,0.633-0.406,1.076c0,0.368,0.127,0.696,0.38,0.986c0.253,0.29,0.585,0.435,0.994,0.435v0.617
			c-0.571,0-1.062,0.212-1.473,0.638c-0.411,0.426-0.617,0.968-0.617,1.628c0,0.587,0.198,1.105,0.594,1.552
			c0.396,0.447,0.91,0.671,1.541,0.671c0.552,0,1.039-0.211,1.459-0.633c0.421-0.422,0.631-0.972,0.631-1.651v-2.206h-0.58v-0.617
			h0.58V98.34h0.575v0.611h1.538v0.617h-1.538v2.206c0,0.875-0.27,1.577-0.808,2.106c-0.539,0.529-1.154,0.794-1.845,0.794
			c-0.815,0-1.472-0.287-1.972-0.86C23.017,103.241,22.768,102.587,22.768,101.852z"/>
		<path d="M35.094,104.387l3.994-9.08l3.983,9.08l-0.569,0.288l-1.454-3.314h-3.932l-1.453,3.314L35.094,104.387z M37.404,100.695
			h3.358l-1.684-3.83L37.404,100.695z"/>
		<path d="M44.277,101.972l0.62-0.036c0.028,0.436,0.114,0.806,0.256,1.111c0.143,0.306,0.318,0.533,0.527,0.681
			s0.408,0.252,0.6,0.312c0.191,0.06,0.396,0.09,0.614,0.09c0.624,0,1.13-0.221,1.518-0.663c0.387-0.442,0.581-0.928,0.581-1.459
			c0-0.436-0.149-0.79-0.448-1.064s-0.904-0.532-1.814-0.776c-1.391-0.4-2.087-1.165-2.087-2.295c0-0.416,0.073-0.789,0.219-1.121
			c0.146-0.332,0.337-0.587,0.571-0.767c0.234-0.18,0.478-0.318,0.732-0.414c0.253-0.096,0.503-0.144,0.751-0.144
			c0.692,0,1.251,0.234,1.678,0.701c0.427,0.467,0.655,1.049,0.685,1.744l-0.62,0.036c-0.023-0.523-0.19-0.957-0.502-1.301
			c-0.312-0.344-0.722-0.515-1.23-0.515c-0.433,0-0.818,0.152-1.157,0.455c-0.339,0.304-0.508,0.737-0.508,1.301
			c0,0.827,0.543,1.382,1.631,1.666c1.057,0.296,1.774,0.638,2.152,1.028c0.378,0.39,0.566,0.878,0.566,1.466
			c0,0.711-0.249,1.353-0.749,1.927c-0.499,0.573-1.161,0.86-1.987,0.86c-0.255,0-0.508-0.039-0.76-0.117
			c-0.251-0.078-0.516-0.21-0.793-0.398c-0.277-0.188-0.512-0.481-0.703-0.878C44.429,103.004,44.314,102.527,44.277,101.972z"/>
		<path d="M51.116,101.972l0.62-0.036c0.028,0.436,0.114,0.806,0.256,1.111c0.143,0.306,0.318,0.533,0.527,0.681
			s0.408,0.252,0.6,0.312c0.191,0.06,0.396,0.09,0.614,0.09c0.624,0,1.13-0.221,1.518-0.663c0.387-0.442,0.581-0.928,0.581-1.459
			c0-0.436-0.149-0.79-0.448-1.064s-0.904-0.532-1.814-0.776c-1.391-0.4-2.087-1.165-2.087-2.295c0-0.416,0.073-0.789,0.219-1.121
			c0.146-0.332,0.337-0.587,0.571-0.767c0.234-0.18,0.478-0.318,0.732-0.414c0.253-0.096,0.503-0.144,0.751-0.144
			c0.692,0,1.251,0.234,1.678,0.701c0.427,0.467,0.655,1.049,0.685,1.744l-0.62,0.036c-0.023-0.523-0.19-0.957-0.502-1.301
			c-0.312-0.344-0.722-0.515-1.23-0.515c-0.433,0-0.818,0.152-1.157,0.455c-0.339,0.304-0.508,0.737-0.508,1.301
			c0,0.827,0.543,1.382,1.631,1.666c1.057,0.296,1.774,0.638,2.152,1.028s0.566,0.878,0.566,1.466c0,0.711-0.249,1.353-0.748,1.927
			c-0.499,0.573-1.161,0.86-1.987,0.86c-0.255,0-0.508-0.039-0.76-0.117c-0.251-0.078-0.516-0.21-0.793-0.398
			c-0.277-0.188-0.512-0.481-0.703-0.878C51.268,103.004,51.154,102.527,51.116,101.972z"/>
		<path d="M57.955,100.084c0-0.907,0.206-1.727,0.617-2.461c0.411-0.733,0.949-1.297,1.614-1.69c0.665-0.394,1.382-0.59,2.152-0.59
			c0.852,0,1.623,0.218,2.312,0.656c0.689,0.438,1.218,1.011,1.586,1.72c0.369,0.709,0.552,1.472,0.552,2.287
			c0,0.907-0.206,1.727-0.617,2.46c-0.411,0.733-0.949,1.297-1.614,1.69c-0.665,0.394-1.382,0.591-2.152,0.591
			c-0.853,0-1.624-0.219-2.313-0.657c-0.689-0.438-1.218-1.01-1.586-1.717C58.14,101.666,57.955,100.903,57.955,100.084z
			 M58.575,100.072c0,1.071,0.36,2.006,1.079,2.808c0.719,0.801,1.633,1.202,2.741,1.202c1.007,0,1.887-0.381,2.642-1.142
			c0.755-0.761,1.132-1.727,1.132-2.897c0-1.123-0.365-2.076-1.096-2.859c-0.731-0.783-1.642-1.175-2.735-1.175
			c-0.999,0-1.876,0.382-2.631,1.147C58.953,97.921,58.575,98.893,58.575,100.072z"/>
		<path d="M68.063,100.084c0-0.907,0.206-1.727,0.617-2.461c0.412-0.733,0.95-1.297,1.614-1.69c0.665-0.394,1.382-0.59,2.152-0.59
			c1.269,0,2.33,0.463,3.183,1.39l-0.44,0.461c-0.729-0.791-1.638-1.187-2.727-1.187c-0.004,0-0.009,0-0.017,0
			c-1.022,0-1.905,0.388-2.648,1.165c-0.743,0.777-1.115,1.743-1.115,2.898c0,1.095,0.366,2.036,1.096,2.826
			c0.731,0.789,1.638,1.184,2.724,1.184c1.022,0,1.906-0.384,2.654-1.151l0.44,0.467c-0.86,0.899-1.887,1.348-3.082,1.348
			c-0.852,0-1.624-0.219-2.313-0.657c-0.689-0.438-1.218-1.011-1.586-1.72C68.246,101.661,68.063,100.899,68.063,100.084z"/>
		<path d="M78.107,104.525v-8.936h0.62v8.936H78.107z"/>
		<path d="M80.688,104.387l3.994-9.08l3.983,9.08l-0.569,0.288l-1.454-3.314H82.71l-1.454,3.314L80.688,104.387z M82.997,100.695
			h3.358l-1.684-3.83L82.997,100.695z"/>
		<path d="M89.459,96.254v-0.665h6.349v0.665h-2.84v8.271h-0.619v-8.271H89.459z"/>
		<path d="M97.425,104.525v-8.936h3.808v0.665h-3.188v3.212h2.541v0.665h-2.541v3.728h3.622v0.665H97.425z"/>
		<path d="M103.459,101.972l0.619-0.036c0.029,0.436,0.114,0.806,0.256,1.111c0.143,0.306,0.318,0.533,0.527,0.681
			s0.408,0.252,0.6,0.312c0.192,0.06,0.396,0.09,0.614,0.09c0.625,0,1.13-0.221,1.518-0.663s0.581-0.928,0.581-1.459
			c0-0.436-0.15-0.79-0.449-1.064c-0.299-0.274-0.904-0.532-1.813-0.776c-1.392-0.4-2.087-1.165-2.087-2.295
			c0-0.416,0.073-0.789,0.219-1.121c0.146-0.332,0.337-0.587,0.571-0.767c0.234-0.18,0.478-0.318,0.731-0.414
			s0.503-0.144,0.751-0.144c0.692,0,1.251,0.234,1.678,0.701c0.427,0.467,0.655,1.049,0.685,1.744l-0.619,0.036
			c-0.023-0.523-0.19-0.957-0.503-1.301c-0.312-0.344-0.722-0.515-1.23-0.515c-0.433,0-0.818,0.152-1.157,0.455
			c-0.339,0.304-0.508,0.737-0.508,1.301c0,0.827,0.543,1.382,1.631,1.666c1.057,0.296,1.775,0.638,2.152,1.028
			s0.566,0.878,0.566,1.466c0,0.711-0.249,1.353-0.748,1.927c-0.499,0.573-1.161,0.86-1.986,0.86c-0.255,0-0.509-0.039-0.76-0.117
			c-0.252-0.078-0.516-0.21-0.794-0.398c-0.277-0.188-0.511-0.481-0.703-0.878C103.611,103.004,103.496,102.527,103.459,101.972z"/>
	</g>
	<g enable-background="new    ">
		<path d="M23.403,93.615V77.728h7.381v1.183h-6.303v5.711h4.421v1.183h-4.421v7.81H23.403z"/>
		<path d="M34.401,93.615V77.728h4.465c1.403,0,2.531,0.513,3.383,1.54c0.852,1.026,1.278,2.2,1.278,3.521
			c0,1.371-0.395,2.546-1.183,3.527s-1.724,1.47-2.806,1.47c-0.523,0-0.945-0.057-1.265-0.17l5.089,5.562l-0.758,0.831l-6.615-7.203
			h2.931c0.921,0,1.74-0.368,2.456-1.103c0.716-0.735,1.073-1.707,1.073-2.914c0-1.002-0.325-1.899-0.975-2.69
			c-0.65-0.792-1.518-1.188-2.602-1.188H35.48v14.704H34.401z"/>
		<path d="M46.233,93.37l6.95-16.142l6.93,16.142l-0.99,0.511l-2.529-5.892h-6.842l-2.529,5.892L46.233,93.37z M50.251,86.806h5.842
			l-2.931-6.808L50.251,86.806z"/>
		<path d="M63.514,93.615V77.206l10.577,13.702v-13.18h1.078v16.408L64.592,80.435v13.18H63.514z"/>
		<path d="M78.689,85.72c0-1.612,0.358-3.071,1.073-4.374c0.716-1.303,1.652-2.305,2.809-3.005c1.157-0.7,2.405-1.049,3.744-1.049
			c2.209,0,4.055,0.824,5.538,2.472l-0.765,0.82c-1.268-1.406-2.849-2.11-4.744-2.11c-0.007,0-0.017,0-0.029,0
			c-1.778,0-3.314,0.691-4.608,2.072c-1.294,1.382-1.941,3.099-1.941,5.152c0,1.946,0.635,3.621,1.907,5.024
			c1.271,1.403,2.851,2.104,4.739,2.104c1.777,0,3.316-0.682,4.617-2.046l0.764,0.831c-1.496,1.598-3.284,2.397-5.362,2.397
			c-1.483,0-2.824-0.389-4.024-1.167c-1.199-0.778-2.119-1.797-2.76-3.058C79.008,88.524,78.689,87.169,78.689,85.72z"/>
		<path d="M94.863,85.72c0-1.612,0.358-3.071,1.073-4.374c0.716-1.303,1.652-2.305,2.809-3.005c1.157-0.7,2.405-1.049,3.744-1.049
			c1.483,0,2.824,0.389,4.024,1.167c1.199,0.778,2.119,1.797,2.76,3.058c0.641,1.261,0.961,2.616,0.961,4.065
			c0,1.612-0.358,3.071-1.073,4.374c-0.716,1.303-1.652,2.305-2.809,3.005c-1.157,0.699-2.405,1.049-3.744,1.049
			c-1.483,0-2.824-0.389-4.024-1.167c-1.199-0.778-2.119-1.795-2.76-3.053C95.182,88.532,94.863,87.176,94.863,85.72z
			 M95.941,85.698c0,1.904,0.625,3.567,1.877,4.992c1.251,1.424,2.841,2.136,4.769,2.136c1.751,0,3.284-0.677,4.598-2.03
			c1.313-1.353,1.97-3.071,1.97-5.152c0-1.996-0.635-3.69-1.907-5.082c-1.271-1.392-2.857-2.088-4.759-2.088
			c-1.739,0-3.264,0.68-4.578,2.04C96.597,81.875,95.941,83.603,95.941,85.698z"/>
	</g>
	<rect x="20.992" y="20.992" fill="none" width="90" height="90"/>
</g>
</svg>
