<?xml version="1.0" encoding="utf-8"?>
<!-- Generator: Adobe Illustrator 18.0.0, SVG Export Plug-In . SVG Version: 6.00 Build 0)  -->
<!DOCTYPE svg PUBLIC "-//W3C//DTD SVG 1.1//EN" "http://www.w3.org/Graphics/SVG/1.1/DTD/svg11.dtd">
<svg version="1.1" id="Layer_1" xmlns="http://www.w3.org/2000/svg" xmlns:xlink="http://www.w3.org/1999/xlink" x="0px" y="0px"
	 viewBox="0 0 234.9 304" enable-background="new 0 0 234.9 304" xml:space="preserve">
<rect id="bg" display="none" fill="#222222" width="234.9" height="304"/>
<path id="f_1_" fill="#FFFFFF" d="M117.5,255c-56.8,0-103-46.2-103-103s46.2-103,103-103c56.8,0,103,46.2,103,103
	S174.2,255,117.5,255z M117.5,55c-53.5,0-97,43.5-97,97s43.5,97,97,97c53.5,0,97-43.5,97-97S170.9,55,117.5,55z M125.2,202v-45.6
	h15.3l2.3-17.8h-17.6v-11.3c0-5.1,1.4-8.7,8.8-8.7l9.4,0v-15.9c-1.6-0.2-7.2-0.7-13.7-0.7c-13.6,0-22.9,8.3-22.9,23.5v13.1H91.5
	v17.8h15.3V202H125.2z"/>
</svg>
