<?xml version="1.0" encoding="utf-8"?>
<!-- Generator: Adobe Illustrator 19.2.1, SVG Export Plug-In . SVG Version: 6.00 Build 0)  -->
<svg version="1.1" id="Layer_1" xmlns="http://www.w3.org/2000/svg" xmlns:xlink="http://www.w3.org/1999/xlink" x="0px" y="0px"
	 viewBox="0 0 50 50" style="enable-background:new 0 0 50 50;" xml:space="preserve">
<style type="text/css">
	.st0{fill:#FFFFFF;}
</style>
<path id="f_1_" class="st0" d="M25.1,50c-13.8,0-25-11.2-25-25s11.2-25,25-25s25,11.2,25,25S38.8,50,25.1,50z M25.1,1.5
	C12.1,1.5,1.5,12,1.5,25s10.6,23.5,23.5,23.5S48.6,38,48.6,25S38,1.5,25.1,1.5z M26.9,37.1V26.1h3.7l0.6-4.3h-4.3V19
	c0-1.2,0.3-2.1,2.1-2.1h2.3V13c-0.4,0-1.7-0.2-3.3-0.2c-3.3,0-5.6,2-5.6,5.7v3.2h-3.7v4.3h3.7v11.1H26.9z"/>
</svg>
