<?xml version="1.0" encoding="utf-8"?>
<!-- Generator: Adobe Illustrator 18.0.0, SVG Export Plug-In . SVG Version: 6.00 Build 0)  -->
<!DOCTYPE svg PUBLIC "-//W3C//DTD SVG 1.1//EN" "http://www.w3.org/Graphics/SVG/1.1/DTD/svg11.dtd">
<svg version="1.1" id="Layer_1" xmlns="http://www.w3.org/2000/svg" xmlns:xlink="http://www.w3.org/1999/xlink" x="0px" y="0px"
	 viewBox="0 0 234.9 304" enable-background="new 0 0 234.9 304" xml:space="preserve">
<rect id="bg" display="none" fill="#222222" width="234.9" height="304"/>
<path id="it" fill="#FFFFFF" d="M117.5,255c-56.8,0-103-46.2-103-103s46.2-103,103-103c56.8,0,103,46.2,103,103S174.2,255,117.5,255
	z M117.5,55c-53.5,0-97,43.5-97,97s43.5,97,97,97c53.5,0,97-43.5,97-97S170.9,55,117.5,55z M141.9,112.2H93
	c-8.5,0-15.3,6.8-15.3,15.3v16.3v32.6c0,8.5,6.8,15.3,15.3,15.3h48.9c8.5,0,15.3-6.8,15.3-15.3v-32.6v-16.3
	C157.2,119,150.4,112.2,141.9,112.2z M146.3,121.4h1.7v1.7V135h-13.6v-13.6H146.3z M106.2,143.8c2.4-3.4,6.8-5.8,11.2-5.8
	s8.8,2.4,11.2,5.8c1.7,2.4,2.7,5.1,2.7,8.2c0,7.8-6.5,13.9-13.9,13.9s-13.9-6.1-13.9-13.9C103.5,148.9,104.5,146.2,106.2,143.8z
	 M149.4,176.5c0,4.1-3.4,7.5-7.5,7.5H93c-4.1,0-7.5-3.4-7.5-7.5v-32.6h11.9c-1,2.4-1.7,5.4-1.7,8.2c0,11.9,9.9,21.8,21.8,21.8
	s21.8-9.9,21.8-21.8c0-2.7-0.7-5.8-1.7-8.2h11.9L149.4,176.5z"/>
</svg>
