<?xml version="1.0" encoding="utf-8"?>
<!-- Generator: Adobe Illustrator 19.2.1, SVG Export Plug-In . SVG Version: 6.00 Build 0)  -->
<svg version="1.1" id="Layer_1" xmlns="http://www.w3.org/2000/svg" xmlns:xlink="http://www.w3.org/1999/xlink" x="0px" y="0px"
	 viewBox="0 0 50 50" style="enable-background:new 0 0 50 50;" xml:space="preserve">
<style type="text/css">
	.st0{fill:#FFFFFF;}
</style>
<path id="it" class="st0" d="M25.1,50c-13.8,0-25-11.2-25-25s11.2-25,25-25s25,11.2,25,25S38.8,50,25.1,50z M25.1,1.5
	C12.1,1.5,1.5,12,1.5,25s10.6,23.5,23.5,23.5S48.6,38,48.6,25S38,1.5,25.1,1.5z M31,15.3H19.1c-2.1,0-3.7,1.7-3.7,3.7v4v7.9
	c0,2.1,1.7,3.7,3.7,3.7H31c2.1,0,3.7-1.7,3.7-3.7V23v-4C34.7,17,33,15.3,31,15.3z M32,17.6h0.4V18v2.9h-3.3v-3.3H32z M22.3,23
	c0.6-0.8,1.7-1.4,2.7-1.4c1.1,0,2.1,0.6,2.7,1.4c0.4,0.6,0.7,1.2,0.7,2c0,1.9-1.6,3.4-3.4,3.4c-1.8,0-3.4-1.5-3.4-3.4
	C21.7,24.2,21.9,23.6,22.3,23z M32.8,30.9c0,1-0.8,1.8-1.8,1.8H19.1c-1,0-1.8-0.8-1.8-1.8V23h2.9c-0.2,0.6-0.4,1.3-0.4,2
	c0,2.9,2.4,5.3,5.3,5.3s5.3-2.4,5.3-5.3c0-0.7-0.2-1.4-0.4-2h2.9L32.8,30.9z"/>
</svg>
