<?xml version="1.0" encoding="utf-8"?>
<!-- Generator: Adobe Illustrator 19.2.1, SVG Export Plug-In . SVG Version: 6.00 Build 0)  -->
<svg version="1.1" id="Layer_1" xmlns="http://www.w3.org/2000/svg" xmlns:xlink="http://www.w3.org/1999/xlink" x="0px" y="0px"
	 viewBox="0 0 50 50" style="enable-background:new 0 0 50 50;" xml:space="preserve">
<style type="text/css">
	.st0{fill:#FFFFFF;}
</style>
<path id="tw" class="st0" d="M25.1,50c-13.8,0-25-11.2-25-25s11.2-25,25-25s25,11.2,25,25S38.8,50,25.1,50z M25.1,1.5
	C12.1,1.5,1.5,12,1.5,25s10.6,23.5,23.5,23.5S48.6,38,48.6,25S38,1.5,25.1,1.5z M36.2,18.1c-0.8,0.4-1.7,0.6-2.6,0.7
	c0.9-0.6,1.7-1.5,2-2.5c-0.9,0.5-1.9,0.9-2.9,1.1c-0.8-0.9-2-1.5-3.3-1.5c-2.5,0-4.6,2.1-4.6,4.6c0,0.4,0,0.7,0.1,1
	c-3.8-0.2-7.2-2-9.5-4.8c-0.4,0.7-0.6,1.5-0.6,2.3c0,1.6,0.8,3,2,3.8c-0.8,0-1.5-0.2-2.1-0.6c0,0,0,0,0,0c0,2.2,1.6,4.1,3.7,4.5
	C18,26.9,17.6,27,17.2,27c-0.3,0-0.6,0-0.9-0.1c0.6,1.8,2.3,3.2,4.3,3.2c-1.6,1.2-3.5,2-5.7,2c-0.4,0-0.7,0-1.1-0.1
	c2,1.3,4.4,2.1,7,2.1c8.4,0,13.1-7,13.1-13.1c0-0.2,0-0.4,0-0.6C34.8,19.8,35.6,19,36.2,18.1L36.2,18.1z"/>
</svg>
