<?xml version="1.0" encoding="utf-8"?>
<!-- Generator: Adobe Illustrator 18.0.0, SVG Export Plug-In . SVG Version: 6.00 Build 0)  -->
<!DOCTYPE svg PUBLIC "-//W3C//DTD SVG 1.1//EN" "http://www.w3.org/Graphics/SVG/1.1/DTD/svg11.dtd">
<svg version="1.1" id="Layer_1" xmlns="http://www.w3.org/2000/svg" xmlns:xlink="http://www.w3.org/1999/xlink" x="0px" y="0px"
	 viewBox="0 0 234.9 304" enable-background="new 0 0 234.9 304" xml:space="preserve">
<rect id="bg" display="none" fill="#222222" width="234.9" height="304"/>
<path id="yt" fill="#FFFFFF" d="M153.8,116.5H81.2c-7.6,0-13.8,6.2-13.8,13.8v43.4c0,7.6,6.2,13.8,13.8,13.8h72.6
	c7.6,0,13.8-6.2,13.8-13.8v-43.4C167.5,122.7,161.4,116.5,153.8,116.5z M106.5,170.5V133l30.3,19.9L106.5,170.5z M117.5,255
	c-56.8,0-103-46.2-103-103s46.2-103,103-103c56.8,0,103,46.2,103,103S174.2,255,117.5,255z M117.5,55c-53.5,0-97,43.5-97,97
	s43.5,97,97,97c53.5,0,97-43.5,97-97S170.9,55,117.5,55z"/>
</svg>
