<?xml version="1.0" encoding="utf-8"?>
<!-- Generator: Adobe Illustrator 19.2.1, SVG Export Plug-In . SVG Version: 6.00 Build 0)  -->
<svg version="1.1" id="Layer_1" xmlns="http://www.w3.org/2000/svg" xmlns:xlink="http://www.w3.org/1999/xlink" x="0px" y="0px"
	 viewBox="0 0 50 50" style="enable-background:new 0 0 50 50;" xml:space="preserve">
<style type="text/css">
	.st0{fill:#FFFFFF;}
</style>
<path id="yt" class="st0" d="M33.9,16.4H16.2c-1.8,0-3.3,1.5-3.3,3.3v10.5c0,1.8,1.5,3.3,3.3,3.3h17.6c1.8,0,3.3-1.5,3.3-3.3V19.7
	C37.2,17.9,35.7,16.4,33.9,16.4z M22.4,29.5v-9.1l7.4,4.8L22.4,29.5z M25.1,50c-13.8,0-25-11.2-25-25s11.2-25,25-25s25,11.2,25,25
	S38.8,50,25.1,50z M25.1,1.5C12.1,1.5,1.5,12,1.5,25s10.6,23.5,23.5,23.5S48.6,38,48.6,25S38,1.5,25.1,1.5z"/>
</svg>
