<?xml version="1.0" encoding="utf-8"?>
<!-- Generator: Adobe Illustrator 19.0.0, SVG Export Plug-In . SVG Version: 6.00 Build 0)  -->
<svg version="1.1" id="Layer_2" xmlns="http://www.w3.org/2000/svg" xmlns:xlink="http://www.w3.org/1999/xlink" x="0px" y="0px"
	 viewBox="-260 352 90 90" style="enable-background:new -260 352 90 90;" xml:space="preserve">
<style type="text/css">
	.st0{fill:#151515;}
	.st1{fill:#FAE7BC;}
	.st2{fill:url(#SVGID_1_);}
	.st3{fill:url(#SVGID_2_);}
	.st4{fill:#8E6205;}
</style>
<g>
	<g>
		<path class="st0" d="M-172,431.6c0,4.6-3.8,8.4-8.4,8.4h-69.2c-4.6,0-8.4-3.8-8.4-8.4v-69.2c0-4.6,3.8-8.4,8.4-8.4h69.2
			c4.6,0,8.4,3.8,8.4,8.4L-172,431.6L-172,431.6z"/>
		<path d="M-180.4,442h-69.2c-5.7,0-10.4-4.7-10.4-10.4v-69.2c0-5.7,4.7-10.4,10.4-10.4h69.2c5.7,0,10.4,4.7,10.4,10.4v69.2
			C-170,437.3-174.7,442-180.4,442z M-249.6,356c-3.5,0-6.4,2.9-6.4,6.4v69.2c0,3.5,2.9,6.4,6.4,6.4h69.2c3.5,0,6.4-2.9,6.4-6.4
			v-69.2c0-3.5-2.9-6.4-6.4-6.4L-249.6,356L-249.6,356z"/>
	</g>
	<g>
		<g id="XMLID_1_">
			<g>
				<path class="st1" d="M-185.6,387.7c4.6,17.1-4,37.5-4,37.5c-27.1,20.6-51.4,2.3-51.4,2.3c-6.1-36.3-3-43.4-3-43.4
					c-0.8,12.8,3.4,20.7,3.4,20.7c2.6-0.3,8.1-19.6,8.1-19.6c1.5-3.3,6.6-6.1,6.7-6.2c-5.7,11.4,0.1,20,0.1,20
					c7.9-3.3,9.1-14.1,9.3-17.1c-0.4,13,9.9,19.8,9.9,19.8c6.3-5.5,3.9-20.3,3.9-20.3c0.2-1.3-1.6-4.6-1.6-4.6
					c11.9,7.7,11.5,18.5,11.5,18.5C-187.9,394.8-185.6,387.7-185.6,387.7z"/>
			</g>
		</g>
		<g>
			
				<linearGradient id="SVGID_1_" gradientUnits="userSpaceOnUse" x1="-232.8349" y1="925.0588" x2="-223.5215" y2="925.0588" gradientTransform="matrix(1 0 0 1 0 -523)">
				<stop  offset="0" style="stop-color:#112C66"/>
				<stop  offset="1" style="stop-color:#315296"/>
			</linearGradient>
			<path class="st2" d="M-228.9,391.8c0,0-2.1,0.1-3,2.9c-0.9,2.9-0.9,8-0.9,8s-0.4,4,2,8.1c0,0,1.3,1.1,3.6,1.5
				c2.3,0.4,4.7-2.1,3.4-13.7C-223.9,398.6-224.1,391.5-228.9,391.8z"/>
			<path d="M-226.8,412.5L-226.8,412.5c-0.2,0-0.3,0-0.5,0c-2.3-0.4-3.6-1.5-3.6-1.5c0,0,0,0,0,0c-2.4-4-2-8.1-2-8.2
				c0-0.2,0-5.2,0.9-8c0.9-2.9,3.1-3.1,3.2-3.1c0.1,0,0.2,0,0.3,0c4.6,0,4.8,6.9,4.8,7c0.8,6.7,0.4,11.2-1.2,13
				C-225.5,412.2-226.1,412.5-226.8,412.5z M-230.7,410.7c0.2,0.1,1.4,1.1,3.5,1.5c0.8,0.1,1.5-0.1,2-0.7c1.1-1.2,2.1-4.4,1.2-12.8
				c0-0.1-0.2-7-4.8-6.7c-0.1,0-2,0.1-2.9,2.8c-0.9,2.8-0.9,7.9-0.9,7.9C-232.6,402.8-233,406.7-230.7,410.7z"/>
		</g>
		<g>
			
				<linearGradient id="SVGID_2_" gradientUnits="userSpaceOnUse" x1="-207.4899" y1="924.7224" x2="-198.4293" y2="924.7224" gradientTransform="matrix(1 0 0 1 0 -523)">
				<stop  offset="0" style="stop-color:#112C66"/>
				<stop  offset="0.145" style="stop-color:#1A3773"/>
				<stop  offset="0.4228" style="stop-color:#274687"/>
				<stop  offset="0.7059" style="stop-color:#2E4F92"/>
				<stop  offset="1" style="stop-color:#315296"/>
			</linearGradient>
			<path class="st3" d="M-201.9,391.5c0,0,1.9,0.6,2.8,6.4c0,0,1.4,7.3,0,12.5c0,0-0.9,1.5-2.8,1.7s-3.5-1.3-4.3-2.6
				s-1.2-7.4-1.2-7.4S-209.1,389.8-201.9,391.5z"/>
			<path d="M-202.2,412.3c-1.8,0-3.3-1.4-4-2.7c-0.7-1.4-1.2-7.2-1.2-7.4c0-0.3-1-6.8,1.4-9.6c1-1.1,2.4-1.5,4.2-1.1
				c0.1,0,2,0.7,2.9,6.5c0,0.1,1.4,7.4,0,12.6l0,0c0,0.1-1,1.5-2.9,1.8C-202,412.2-202.1,412.3-202.2,412.3z M-203.1,391.5
				c-1.1,0-1.9,0.4-2.6,1.2c-2.3,2.7-1.4,9.3-1.4,9.3c0,0.1,0.5,6,1.2,7.3c0.7,1.4,2.3,2.8,4.1,2.5c1.7-0.2,2.6-1.4,2.7-1.6
				c1.4-5.1,0-12.3,0-12.4c-0.9-5.6-2.7-6.2-2.7-6.3C-202.3,391.6-202.8,391.5-203.1,391.5z"/>
		</g>
		<g id="XMLID_2_">
			<g>
				<path class="st4" d="M-216.6,381.7c-1.2,15-9.2,17.1-9.2,17.1c-5.6-10.9,0-20,0-20c-6.1,3.4-6.7,6.2-6.7,6.2
					c-6,20.5-8.1,19.6-8.1,19.6c-4.5-10.2-3.4-20.7-3.4-20.7c-3.4,10.7,4.6,52.7,4.6,52.7c-17.7-19.8-14.2-40.5-14.2-40.5
					c0.9-17.9,11.3-28.8,11.9-29.7c3.5-5.2,18.8-9.6,20-9.3c1.2,0.3,4.1,0,4.1,0c2.1-0.9,6.2-0.6,6.2-0.6
					c21.6,1.5,30.5,18.8,30.5,18.8c8.4,13.7,4.4,34.9,4.4,34.9c-5.9,19.1-16.3,21.9-16.3,21.9c13.1-26.5,7.2-44.7,7.2-44.7
					c-0.1,0.1-0.1,0.3-0.2,0.4c-3,7.5-7,7.1-7,7.1c-0.8-12.7-11.5-18.5-11.5-18.5c1.8,3.4,1.6,4.6,1.6,4.6c2.2,16-3.9,20.3-3.9,20.3
					C-216.3,394.4-216.7,384.5-216.6,381.7z M-216.5,381c0,0.1,0,0.3,0,0.7C-216.5,381.5-216.5,381.3-216.5,381z"/>
			</g>
			<g>
				<path d="M-216.6,381.9C-216.6,381.9-216.6,381.9-216.6,381.9c-0.1,0-0.2-0.1-0.2-0.2c0-0.3,0-0.5,0-0.7l0,0c0,0,0,0,0,0
					c0-0.1,0.1-0.2,0.2-0.2h0c0.1,0,0.2,0.1,0.2,0.2c0,0,0,0,0,0l0,0c0,0.1,0,0.3,0,0.6C-216.4,381.8-216.5,381.9-216.6,381.9z"/>
				<path d="M-216.6,381.9C-216.6,381.9-216.6,381.9-216.6,381.9c-0.1,0-0.2-0.1-0.2-0.2c0-0.2,0-0.5,0-0.7c0-0.1,0.1-0.2,0.2-0.2
					c0.1,0,0.2,0.1,0.2,0.2c0,0.2,0,0.5,0,0.7C-216.4,381.8-216.5,381.9-216.6,381.9z"/>
				<path d="M-216.6,381.9C-216.6,381.9-216.6,381.9-216.6,381.9c-0.1-0.1-0.2-0.1-0.2-0.2c0-0.1,0.1-0.2,0.2-0.2c0,0,0,0,0,0
					c0.1,0,0.2,0.1,0.2,0.2v0c0,0,0,0.1,0,0.1C-216.5,381.9-216.5,381.9-216.6,381.9z"/>
				<path d="M-239.4,437c0,0-0.1,0-0.1-0.1c-9.2-10.3-12.5-20.8-13.8-27.8c-1.3-7.6-0.5-12.8-0.4-12.9c0.6-10.7,4.6-20.8,11.5-29.3
					c0.2-0.2,0.3-0.4,0.3-0.4c3.4-5,18-9.4,20-9.4c0.1,0,0.1,0,0.2,0c0.4,0.1,0.9,0.1,1.6,0.1c1.1,0,2.3-0.1,2.5-0.1
					c1.3-0.5,3.3-0.7,4.8-0.7c0.9,0,1.5,0,1.5,0c11.2,0.8,18.9,5.9,23.4,10c4.9,4.5,7.1,8.9,7.2,8.9c8.3,13.5,4.4,34.8,4.4,35
					c-5.9,19-16.4,22-16.5,22.1c-0.1,0-0.1,0-0.2-0.1c0-0.1-0.1-0.1,0-0.2c11.8-23.8,8.1-41.1,7.3-44.1c-2.7,6.8-6.3,7.1-7,7.1
					c-0.1,0-0.1,0-0.1,0c-0.1,0-0.1-0.1-0.1-0.2c-0.7-10.8-8.8-16.7-10.9-18.1c1.4,2.7,1.3,3.9,1.3,4.1c2.2,15.9-3.7,20.3-4,20.5
					c-0.1,0-0.1,0-0.2,0c-7.7-5.7-9.6-13.2-9.9-17.4c-1.8,12.7-9,14.7-9.1,14.8c-0.1,0-0.2,0-0.2-0.1c-4.8-9.4-1.4-17.5-0.3-19.6
					c-5.4,3.2-6.1,5.8-6.1,5.8c-5.4,18.4-7.7,19.8-8.2,19.8c0,0-0.1,0-0.1,0c0,0-0.1,0-0.1-0.1c-3.3-7.5-3.6-15.1-3.5-18.7
					c-2,12.8,4.8,49.1,5.1,50.6c0,0,0,0,0,0.1C-239.2,436.9-239.3,437-239.4,437C-239.4,437-239.4,437-239.4,437z M-221.8,357.5
					c-2,0-16.4,4.3-19.8,9.2c-0.1,0.1-0.2,0.2-0.4,0.5c-6.9,8.4-10.9,18.5-11.5,29.1c0,0.1-0.9,5.3,0.4,12.8
					c1.2,6.8,4.5,17.1,13.3,27.1c-1-5.2-7.6-42.3-4.5-52.2c0-0.1,0.1-0.1,0.2-0.1s0.1,0.1,0.1,0.2c0,0.1-1.1,10.4,3.3,20.5
					c0.4-0.1,2.6-1.6,7.8-19.5c0-0.1,0.7-2.9,6.8-6.3c0.1,0,0.2,0,0.2,0c0.1,0.1,0.1,0.1,0,0.2c-0.1,0.1-5.4,9.1,0,19.7
					c1-0.4,7.9-3.3,9-16.9c0-0.1,0.1-0.2,0.2-0.2c0.1,0,0.2,0.1,0.2,0.2c-0.1,2.8,0.3,12.5,9.7,19.6c0.8-0.6,5.8-5.5,3.8-20.1
					c0,0,0,0,0-0.1c0,0,0.2-1.2-1.6-4.5c0-0.1,0-0.1,0-0.2c0.1-0.1,0.1-0.1,0.2,0c0.1,0.1,10.8,6,11.6,18.5c0.7,0,4.1-0.4,6.7-7
					c0.1-0.1,0.1-0.3,0.2-0.4c0-0.1,0.1-0.1,0.2-0.1c0.1,0,0.1,0,0.2,0.1c0.1,0.2,5.7,18.4-7,44.5c1.9-0.7,10.7-4.9,15.9-21.7
					c0-0.2,3.9-21.3-4.3-34.8c-0.1-0.2-9.1-17.3-30.3-18.7c0,0-0.6,0-1.5,0c-1.4,0-3.4,0.1-4.7,0.6c0,0,0,0-0.1,0
					c0,0-1.3,0.1-2.5,0.1c-0.7,0-1.3,0-1.7-0.1C-221.7,357.5-221.7,357.5-221.8,357.5z"/>
			</g>
		</g>
		<path d="M-185.6,387.9C-185.7,387.9-185.7,387.9-185.6,387.9c-0.1,0-0.2-0.1-0.2-0.2c2-6.1-0.5-12.1-0.5-12.1c0-0.1,0-0.2,0.1-0.2
			c0.1,0,0.2,0,0.2,0.1c0,0.1,2.5,6.1,0.5,12.3C-185.5,387.8-185.6,387.9-185.6,387.9z"/>
		<path d="M-216.9,435.2c-3.2,0-6.1-0.4-8.6-0.9c-9.4-2-15.5-6.6-15.6-6.6c-0.1-0.1-0.1-0.2,0-0.2c0.1-0.1,0.2-0.1,0.2,0
			c0.1,0,6.2,4.6,15.5,6.6c8.6,1.8,21.8,1.7,35.7-8.9c0.1-0.1,0.2,0,0.2,0c0.1,0.1,0,0.2,0,0.2
			C-199.5,432.9-209.1,435.2-216.9,435.2z"/>
		<path d="M-217.5,425.7c-1.3,0-2.7-1.4-2.9-1.5c-0.2-0.2-0.2-0.5,0-0.7c0.2-0.2,0.5-0.2,0.7,0c0.3,0.3,1.4,1.3,2.2,1.2
			c0.2,0,0.4-0.1,0.6-0.4c0.2-0.2,0.5-0.3,0.7-0.1c0.2,0.2,0.3,0.5,0.1,0.7c-0.3,0.5-0.8,0.8-1.3,0.8
			C-217.4,425.7-217.5,425.7-217.5,425.7z"/>
	</g>
</g>
</svg>
