<svg id="Layer_1" data-name="Layer 1" xmlns="http://www.w3.org/2000/svg" viewBox="0 0 50 50"><defs><style>.cls-1{fill:#fff;}</style></defs><title>logo</title><g id="DA"><path id="circle" class="cls-1" d="M25,50A25,25,0,1,1,50,25,25,25,0,0,1,25,50ZM25,1.46A23.54,23.54,0,1,0,48.54,25,23.57,23.57,0,0,0,25,1.46Z" transform="translate(0 0)"/><path id="A" class="cls-1" d="M42,34.5m2.17-3.66c0.24-3.28.18-5.11,0.18-5.11,0-4.46-1.31-9.84-4-13.58a15.84,15.84,0,0,0-8-5.87A15.19,15.19,0,0,0,28,5.61V44.35h1.76V30.14l2.61,0.91v13.3a17.51,17.51,0,0,0,1.75-.68v-12l4.13,1.44v7.71A10.3,10.3,0,0,0,40,38.92V33.72h0v-1.6l-1.75-.61-4.13-1.44V26.78l4.13,1.44L40,28.82V25.73a19.59,19.59,0,0,0-3.2-11,12.84,12.84,0,0,0-2.67-2.72c-0.39-.34-1.55-0.92-1.75-1.07V29.46l-2.61-.91V7.45a11.56,11.56,0,0,1,2.62.68A14.61,14.61,0,0,1,39,13.22c2.52,3.44,3.69,8.39,3.69,12.51,0,0,0,3.88-.36,8.77ZM34.15,14.34a7.16,7.16,0,0,1,1.26,1.45,18,18,0,0,1,2.86,9.94v0.9l-4.13-1.44V14.34Z" transform="translate(0 0)"/><rect id="dash" class="cls-1" x="23.25" y="24.15" width="3.5" height="1.75"/><path id="D" class="cls-1" d="M9.63,12.19a15.84,15.84,0,0,1,8-5.87A15.19,15.19,0,0,1,22,5.65V40.76a10,10,0,0,1-4.37-1.07v4.7a14.58,14.58,0,0,1-1.75-.68,17,17,0,0,1-6.21-5.19,22,22,0,0,1-4-12.75C5.61,21.31,6.92,15.93,9.63,12.19ZM11,37.46c0.87,1.12,4,4.27,4.81,4.27v-3.1a12.84,12.84,0,0,1-2.67-2.72A17,17,0,0,1,10,25.77a19.59,19.59,0,0,1,3.2-11,12.84,12.84,0,0,1,2.67-2.72c0.39-.34,1.55-0.92,1.75-1.07V37.7a6.81,6.81,0,0,0,2.62,1.07V7.49a11.56,11.56,0,0,0-2.62.68A14.61,14.61,0,0,0,11,13.26C8.52,16.7,7.35,21.65,7.35,25.77A20,20,0,0,0,11,37.46Zm4.81-23.08a7.16,7.16,0,0,0-1.26,1.45,18,18,0,0,0-2.86,9.94,15.31,15.31,0,0,0,2.86,9.12,7.16,7.16,0,0,0,1.26,1.45v-22Z" transform="translate(0 0)"/></g></svg>