<?xml version="1.0" encoding="utf-8"?>
<!-- Generator: Adobe Illustrator 19.2.1, SVG Export Plug-In . SVG Version: 6.00 Build 0)  -->
<svg version="1.1" id="Layer_1" xmlns="http://www.w3.org/2000/svg" xmlns:xlink="http://www.w3.org/1999/xlink" x="0px" y="0px"
	 viewBox="0 0 50 50" style="enable-background:new 0 0 50 50;" xml:space="preserve">
<style type="text/css">
	.st0{display:none;}
	.st1{display:inline;}
	.st2{fill:#FFFFFF;}
</style>
<g id="DA">
	<g id="fill" class="st0">
		
			<image style="display:inline;overflow:visible;opacity:0.6;enable-background:new    ;" width="938" height="938" xlink:href="3B4F674FD74F75D.png"  transform="matrix(5.330490e-02 0 0 5.330490e-02 0 0)">
		</image>
		<g class="st1">
			<path class="st2" d="M25,0.9c-12.7,0-23,10.3-23,23s10.3,23,23,23c12.7,0,23-10.3,23-23S37.7,0.9,25,0.9z M16.6,34.3
				c-0.5-0.4-0.8-0.8-1.2-1.3c-1.7-2.3-2.6-5.3-2.6-8.4c0-3,0.9-6.8,2.6-9.1c0.4-0.5,0.7-0.9,1.2-1.3V34.3z M37.2,25.4L33.4,24v-10
				c0.5,0.4,0.8,0.8,1.2,1.3c1.7,2.4,2.6,6.1,2.6,9.1V25.4z"/>
		</g>
	</g>
	<path id="circle" class="st2" d="M25,46.8c-12.7,0-23-10.3-23-23s10.3-23,23-23c12.7,0,23,10.3,23,23S37.7,46.8,25,46.8z M25,2.2
		c-11.9,0-21.6,9.7-21.6,21.6S13.1,45.5,25,45.5c11.9,0,21.6-9.7,21.6-21.6S36.9,2.2,25,2.2z"/>
	<path id="A" class="st2" d="M42.6,29.2c0.2-3,0.2-4.7,0.2-4.7c0-4.1-1.2-9-3.7-12.5c-2-2.6-4.5-4.5-7.3-5.4c-1.4-0.4-2.6-0.6-4-0.6
		v35.6h1.6l0-13.1l2.4,0.8v12.2c0,0,1-0.3,1.6-0.6V30l3.8,1.3l0,7.1c0,0,1.2-1,1.6-1.7l0-4.8l0,0l0-1.5l-1.6-0.6l-3.8-1.3v-3
		l3.8,1.3l1.6,0.5l0-2.8c0-3.4-1-7.4-2.9-10.1c-0.7-0.9-1.5-1.7-2.5-2.5c-0.4-0.3-1.4-0.8-1.6-1v17l-2.4-0.8l0-19.4
		c0.8,0.1,1.7,0.3,2.4,0.6c2.5,0.9,4.6,2.7,6,4.7c2.3,3.2,3.4,7.7,3.4,11.5c0,0,0,3.6-0.3,8.1L42.6,29.2z M33.4,14.1
		c0.5,0.4,0.8,0.8,1.2,1.3c1.7,2.4,2.6,6.1,2.6,9.1v0.8L33.4,24V14.1z"/>
	<rect id="dash" x="23.4" y="23.1" class="st2" width="3.2" height="1.6"/>
	<path id="D" class="st2" d="M10.9,12.1c2-2.6,4.5-4.5,7.3-5.4c1.4-0.4,2.6-0.6,4-0.6v30.7v1.6c-1.6,0-2.9-0.4-4-1v4.3
		c-0.6-0.2-1.1-0.4-1.6-0.6c-2.3-1-4.2-2.9-5.7-4.8c-2.5-3.5-3.7-7.6-3.7-11.7C7.2,20.5,8.4,15.5,10.9,12.1z M12.2,35.3
		c0.8,1,3.7,3.9,4.4,3.9v-2.9c-1-0.8-1.8-1.6-2.5-2.5c-2-2.7-2.9-5.9-2.9-9.3c0-3.4,1-7.4,2.9-10.1c0.7-0.9,1.5-1.7,2.5-2.5
		c0.4-0.3,1.4-0.8,1.6-1v24.5c0.8,0.5,1.6,0.8,2.4,1V7.8c-0.8,0.1-1.7,0.3-2.4,0.6c-2.5,0.9-4.6,2.7-6,4.7
		c-2.3,3.2-3.4,7.7-3.4,11.5C8.8,28.4,9.9,32.2,12.2,35.3z M16.6,14.1c-0.5,0.4-0.8,0.8-1.2,1.3c-1.7,2.4-2.6,6.1-2.6,9.1
		c0,3,0.9,6.1,2.6,8.4c0.4,0.5,0.7,0.9,1.2,1.3V14.1z"/>
</g>
</svg>
